<svg width="200" height="200" viewBox="0 0 200 200" fill="none" xmlns="http://www.w3.org/2000/svg">
<ellipse cx="100" cy="100.448" rx="100" ry="99.5025" fill="#F4F4F4"/>
<mask id="mask0_24210_302145" style="mask-type:alpha" maskUnits="userSpaceOnUse" x="0" y="0" width="200" height="200">
<ellipse cx="100" cy="100.448" rx="100" ry="99.5025" fill="#E8E8E8"/>
</mask>
<g mask="url(#mask0_24210_302145)">
<path d="M130.726 98.7301L122.051 104.35L106.345 80.3366C105.629 79.2688 105.331 77.977 105.507 76.706C105.684 75.435 106.323 74.273 107.303 73.4403C107.865 72.9775 108.519 72.6383 109.222 72.4448C109.926 72.2513 110.662 72.208 111.383 72.3177C112.105 72.4274 112.795 72.6876 113.409 73.0813C114.023 73.475 114.546 73.9933 114.945 74.6022L130.726 98.7301Z" fill="#EFB19E"/>
<path d="M80.106 116.77C80.3966 115.412 81.2158 114.224 82.3845 113.467C83.5531 112.71 84.976 112.445 86.3415 112.73L80.6996 111.539C79.4171 111.284 78.2719 110.571 77.48 109.534C76.6881 108.497 76.3041 107.208 76.3999 105.91C76.468 105.173 76.6918 104.459 77.0566 103.815C77.4214 103.17 77.9189 102.61 78.5167 102.171C79.1144 101.731 79.7986 101.423 80.5248 101.266C81.251 101.108 82.0026 101.105 82.7302 101.258L81.5263 100.913C80.2439 100.657 79.0989 99.9441 78.3071 98.9073C77.5154 97.8704 77.1317 96.5816 77.2276 95.2834C77.2956 94.5466 77.5191 93.8326 77.8838 93.1882C78.2485 92.5438 78.7458 91.9836 79.3434 91.5443C79.941 91.1049 80.6254 90.7964 81.3515 90.639C82.0775 90.4815 82.8292 90.4784 83.5568 90.6304L86.8428 91.4144C86.1159 91.2597 85.4299 90.9537 84.8297 90.5166C84.2296 90.0795 83.7287 89.5214 83.3603 88.8783C82.9919 88.2353 82.7641 87.5221 82.692 86.7855C82.6199 86.049 82.705 85.3057 82.9417 84.6045C83.3804 83.3784 84.2544 82.3547 85.399 81.7263C86.5437 81.0979 87.8803 80.9081 89.1568 81.1926L124.319 88.6101L115.414 129.535L84.1402 122.937C82.7853 122.65 81.5998 121.839 80.8435 120.683C80.0872 119.527 79.8221 118.119 80.106 116.77Z" fill="#EFB19E"/>
<path d="M88.3194 39.1526L27.6159 118.289L65.4044 147.029L126.108 67.8917L88.3194 39.1526Z" fill="#0048FF"/>
<path d="M85.4155 80.7778C87.8312 82.5026 89.6794 84.9016 90.7263 87.671C91.7733 90.4405 91.9721 93.456 91.2973 96.3362C90.6225 99.2163 89.1045 101.832 86.9355 103.851C84.7664 105.871 82.0438 107.204 79.112 107.681C76.1803 108.159 73.171 107.761 70.4653 106.536C67.7595 105.311 65.4786 103.315 63.9112 100.8C62.3439 98.2854 61.5606 95.365 61.6603 92.4087C61.7599 89.4523 62.7381 86.593 64.4711 84.1919C65.6138 82.5909 67.0642 81.2313 68.7382 80.1921C70.4122 79.1528 72.2764 78.4544 74.2238 78.1369C76.1713 77.8195 78.1631 77.8895 80.084 78.3428C82.005 78.796 83.817 79.6236 85.4155 80.7778Z" stroke="white" stroke-width="1.5" stroke-miterlimit="10"/>
<path d="M130.661 98.3707L121.987 103.99L106.28 79.9773C105.564 78.9093 105.266 77.6176 105.443 76.3465C105.619 75.0755 106.259 73.9134 107.238 73.0807C107.801 72.6179 108.455 72.2788 109.158 72.0853C109.861 71.8919 110.597 71.8488 111.319 71.9585C112.04 72.0682 112.73 72.3284 113.344 72.7221C113.958 73.1158 114.481 73.6342 114.88 74.2431L130.661 98.3707Z" fill="#EFB19E"/>
<path d="M124.33 88.5239L115.423 129.454L258.105 220.104L326.85 126.96L124.33 88.5239Z" fill="#FFC100"/>
</g>
</svg>
