<svg width="200" height="200" viewBox="0 0 200 200" fill="none" xmlns="http://www.w3.org/2000/svg">
<g clip-path="url(#clip0_24210_302166)">
<circle cx="100" cy="100" r="100" fill="#F4F4F4"/>
<mask id="mask0_24210_302166" style="mask-type:alpha" maskUnits="userSpaceOnUse" x="0" y="0" width="200" height="200">
<circle cx="100" cy="100" r="100" fill="#E8E8E8"/>
</mask>
<g mask="url(#mask0_24210_302166)">
<path d="M46.7292 81.767C56.6578 83.5191 59.2192 84.3466 69.5625 85.9284L84.5408 88.362C86.0008 88.4628 87.4519 88.6661 88.8832 88.9704C90.4444 89.2624 92.323 89.6031 93.3231 89.7248C93.6102 89.8774 93.8872 90.0481 94.1525 90.2359C95.0334 90.4651 95.8617 90.8617 96.5919 91.404C97.1505 91.6731 97.6747 92.0081 98.1532 92.4018C98.5923 92.7912 98.8851 93.1562 99.1291 93.3509C99.4504 93.7095 99.7439 94.0918 100.007 94.4947L99.8119 94.3243C100.409 95.1375 100.826 96.0676 101.036 97.0534C101.247 98.0391 101.245 99.0582 101.032 100.043L101.276 99.9216C100.936 101.553 100.343 103.121 99.5192 104.57C98.7579 105.98 97.6813 107.196 96.3725 108.123C94.7861 109.715 92.8831 110.959 90.786 111.773C88.8588 112.601 86.834 113.331 84.3214 114.645C84.9556 114.304 84.0043 114.645 84.0286 114.645C81.5892 115.667 79.1497 116.859 79.1497 117.249C77.4177 118.028 77.6861 117.784 77.3934 117.736C76.5745 118.394 75.662 118.927 74.6856 119.317L75.2711 118.952L71.5142 120.899H72.4168C70.3676 121.848 71.7095 120.778 69.8311 121.873L70.0017 122.092C67.2207 123.528 65.4399 124.039 62.6833 125.401C59.9268 126.764 57.2921 128.76 54.6818 130.634C51.8885 132.53 49.555 135.024 47.8515 137.934C47.0169 139.533 46.5975 141.316 46.6318 143.118C46.7953 144.878 47.4363 146.561 48.4858 147.985C50.5979 150.465 53.3596 152.311 56.4626 153.315C56.609 153.461 56.7799 153.558 56.9263 153.68C57.0726 153.802 57.8532 153.948 58.7314 154.069C59.3702 154.052 60.0068 154.151 60.6099 154.361L61.9514 154.507C62.3173 154.653 63.0737 154.872 62.4151 154.799C63.1202 154.966 63.8384 155.072 64.5618 155.116L65.8304 155.602C70.7093 156.746 74.7832 157.209 79.8573 158.255C87.9067 160.021 96.0519 161.321 104.252 162.149C113.693 163.074 124.524 165.556 134.257 165.726C134.637 165.79 135.024 165.79 135.404 165.726C138.356 165.97 141.307 166.164 144.283 166.335C144.283 166.335 146.967 166.505 150.504 166.602C154.041 166.7 169.795 167.606 173.137 167.436C179.846 167.192 182.383 166.706 166.112 165.002H166.331C162.601 164.666 147.442 163.719 143.698 163.828C142.016 163.516 140.31 163.353 138.599 163.341C135.623 163.341 132.55 162.66 129.695 162.684C129.966 162.603 130.255 162.603 130.525 162.684C128.833 162.705 127.145 162.517 125.5 162.124C120.621 161.711 113.717 160.81 110.521 160.762H110.765C108.935 160.762 108.326 160.494 106.399 160.372H106.179C104.203 160.372 100.495 159.569 98.8605 159.423V159.253L94.9574 158.669L96.421 158.936C95.8355 159.301 93.5181 158.206 90.6639 157.987C87.8097 157.768 85.1752 157.987 82.4918 157.257C81.1501 157.257 83.7117 157.136 81.7357 156.917C81.7357 156.698 82.6626 156.917 82.1991 156.673C80.2719 156.43 79.1254 155.846 76.7591 155.554V155.359C73.6366 155.091 71.0506 153.972 68.9526 153.875C65.7569 153.364 66.9524 152.901 63.5859 152.56L62.3662 152.049C60.9757 151.709 61.3174 152.049 59.7805 151.684C59.7805 151.563 57.9509 151.076 58.8291 151.173C57.1645 150.682 55.5345 150.08 53.9502 149.372C52.2472 148.581 50.8748 147.221 50.0712 145.527C49.4339 144.577 49.0945 143.459 49.0957 142.315C49.0957 142.315 49.3395 141.293 49.5346 140.611C49.7298 139.93 50.0715 139.565 49.73 140.611C49.73 140.806 49.7298 141.122 49.5835 141.098V141.39C50.2998 139.304 51.4561 137.396 52.9743 135.793C52.3401 136.231 51.8035 137.034 52.1206 136.45C52.4377 135.866 53.2426 135.379 53.7793 134.844L53.5354 135.282C54.4201 134.522 55.3487 133.816 56.3164 133.165H55.8042C57.1322 132.489 58.3833 131.673 59.5364 130.731C60.2194 130.123 57.9751 131.485 59.5364 130.366C61.6099 129.149 64.7568 127.446 67.4402 125.985C67.0987 125.985 67.8063 125.547 68.5381 125.109H68.7087C71.4409 123.333 69.9285 124.89 72.6851 123.211L72.49 123.455L73.0755 122.724C75.5149 121.094 74.6367 122.359 77.3445 120.51C76.198 121.094 76.6128 120.51 78.0765 119.804L77.7838 120.121C78.2889 119.831 78.8099 119.571 79.3448 119.342C78.9057 119.634 79.1985 119.658 80.345 119.123L79.6619 119.682L81.7357 118.393C83.5409 117.809 86.1753 116.47 87.0047 116.397C88.6052 115.827 90.1422 115.093 91.5909 114.207C90.9079 114.742 93.0058 113.769 92.5179 114.207C93.4205 113.574 96.1527 111.773 97.3969 111.068L97.2018 111.238C99.0589 109.958 100.622 108.299 101.788 106.371C102.874 104.487 103.648 102.441 104.081 100.311C103.935 100.311 104.081 99.8486 104.081 99.3376C104.081 98.8265 104.081 98.3398 103.886 98.6562C103.886 93.7889 100.91 90.1142 99.007 89.8709C98.1776 89.2138 97.641 88.9217 97.2506 88.6054C96.8962 88.3072 96.5118 88.0463 96.1039 87.8266L96.5675 87.997L94.2987 87.0722C93.5912 86.9018 92.9084 86.7315 92.3961 86.6585L89.1026 86.0258C87.7614 86.0682 86.4199 85.9621 85.1022 85.7094C85.9072 85.7094 84.9069 85.539 84.0286 85.393C84.5897 85.393 84.7848 85.393 83.6383 85.1253C83.4112 85.1499 83.1824 85.1499 82.9554 85.1253C81.4674 84.9306 81.711 85.0036 82.3941 85.1253C82.3941 85.1253 82.3943 85.1253 82.6139 85.2713C81.1175 85.0059 79.6355 84.6647 78.1739 84.2492C73.6853 83.5435 70.4409 83.2758 66.6841 82.7404C66.2938 82.5457 67.1721 82.57 68.2698 82.7404L65.6106 82.351C65.6106 82.1563 67.1474 82.497 68.05 82.5944C64.9519 81.7426 61.5125 81.8156 57.8777 80.9152H57.0725H56.853C56.3943 81.0089 55.9214 81.0089 55.4626 80.9152C54.9748 80.6718 55.4624 80.5258 53.7304 80.2338C51.7378 79.8533 49.7266 79.5771 47.705 79.4064C48.7296 79.6254 48.3636 79.6497 47.9245 79.6497C47.0219 79.5037 46.5096 79.236 45.8022 79.1873V78.944C46.1193 79.236 43.363 78.798 43.0214 78.944C42.6799 79.09 44.4606 78.944 44.7045 78.944L39.1913 78.0679C37.2154 77.9219 39.5328 78.3356 38.557 78.3842C36.825 78.1409 35.1175 78.0435 33.1415 77.5812L33.7514 77.8732C31.2804 77.6453 12.2853 75.2153 9.8856 74.5848C-14.509 72.2729 4.42123 75.9963 4.42123 75.9963C13.8132 77.8458 35.3613 80.0634 46.7292 81.767Z" fill="#D5D4D4"/>
</g>
<path d="M124.341 58.1094C113.741 58.1094 103.569 62.3617 96.047 69.9214C88.6102 77.3522 84.3789 87.5749 84.3789 98.2272C84.3789 120.391 124.341 164.675 124.341 164.675C124.341 164.675 164.303 120.434 164.303 98.2272C164.303 87.5749 160.072 77.3951 152.55 69.8355C145.027 62.2758 134.941 58.1094 124.341 58.1094ZM124.341 115.58C120.537 115.58 116.904 114.42 113.827 112.402C110.75 110.254 108.271 107.333 106.86 103.811C105.45 100.332 105.022 96.4661 105.792 92.8152C106.518 89.0783 108.356 85.728 111.006 83.0649C113.656 80.4018 117.032 78.5549 120.751 77.8247C124.469 77.0945 128.273 77.481 131.692 78.8985C135.154 80.3159 138.146 82.8072 140.198 85.8998C142.335 88.9924 143.36 92.7293 143.36 96.552C143.36 101.62 141.309 106.474 137.804 110.039C134.257 113.604 129.384 115.58 124.341 115.58Z" fill="#FFC100"/>
<circle cx="124.341" cy="96.3083" r="19.2458" fill="white"/>
<path d="M70.1028 33.2969C64.8842 33.2969 59.8589 35.3856 56.148 39.0601C52.4756 42.7346 50.3882 47.763 50.3882 52.9847C50.3882 63.8536 70.1028 85.514 70.1028 85.514C70.1028 85.514 89.8175 63.8536 89.8175 52.9847C89.8175 47.8016 87.73 42.7346 84.0577 39.0601C80.3467 35.3856 75.3214 33.2969 70.1028 33.2969ZM70.1028 61.5328C68.2473 61.5328 66.4305 60.9913 64.8842 59.947C63.3767 58.9026 62.1783 57.4715 61.4438 55.6922C60.7094 54.029 60.5548 52.0951 60.864 50.2384C61.1733 48.3818 62.1397 46.7186 63.4153 45.4422C64.691 44.1658 66.3918 43.1988 68.2087 42.8894C70.0642 42.5026 71.881 42.7346 73.6592 43.4309C75.3601 44.1658 76.8677 45.3648 77.8341 46.8733C78.8778 48.3818 79.419 50.2384 79.419 52.0564C79.419 54.5319 78.4526 56.93 76.713 58.7092C74.9735 60.5658 72.5768 61.5328 70.1028 61.5328Z" fill="#0048FF"/>
<circle cx="70.103" cy="52.0679" r="9.38818" fill="white"/>
</g>
<defs>
<clipPath id="clip0_24210_302166">
<rect width="200" height="200" fill="white"/>
</clipPath>
</defs>
</svg>
