<svg width="200" height="200" viewBox="0 0 200 200" fill="none" xmlns="http://www.w3.org/2000/svg">
<circle cx="100" cy="100" r="100" fill="#F4F4F4"/>
<path d="M100.606 168.165L50.8919 55.895L102.821 33.2834L152.536 145.553L100.606 168.165Z" fill="#0048FF"/>
<path d="M107.764 119.479C111.083 118.15 113.9 115.889 115.88 112.992C117.859 110.095 118.949 106.632 119.022 103.058C119.043 99.5533 118.065 96.0606 116.155 93.0706C114.246 90.0805 111.491 87.7688 108.17 86.3474C104.919 84.979 101.295 84.537 97.8212 85.1998C94.3479 85.8626 91.1317 87.4907 88.5939 89.9638C86.0561 92.4369 84.3026 95.6156 83.5815 99.0281C82.8075 102.51 83.1718 106.087 84.5014 109.407C85.3645 111.602 86.6321 113.554 88.3041 115.264C89.9761 116.974 91.913 118.334 94.098 119.223C96.283 120.112 98.6101 120.669 100.923 120.665C103.253 120.784 105.638 120.395 107.764 119.479Z" stroke="#FC9132" stroke-width="1.2586" stroke-miterlimit="10"/>
<path d="M102.326 113.393C98.7851 112.895 95.5097 111.371 92.8957 109.031C90.2817 106.69 88.3971 103.588 87.4722 100.134C86.6154 96.7365 86.7313 93.1113 87.872 89.7517C89.0126 86.3922 91.1358 83.4896 94.0212 81.3165C96.8515 79.2114 100.266 77.9169 103.797 77.7313C107.328 77.5457 110.84 78.3588 113.895 80.1545C116.949 81.9502 119.411 84.6182 120.926 87.7599C122.509 90.9567 123.009 94.5169 122.511 98.0579C122.197 100.396 121.432 102.594 120.217 104.654C119.001 106.713 117.445 108.497 115.535 109.882C113.626 111.267 111.499 112.363 109.252 112.912C107.018 113.583 104.609 113.775 102.326 113.393Z" stroke="#FC9132" stroke-width="1.2586" stroke-miterlimit="10"/>
<path d="M121.891 64.2606L54.5584 64.5492L55.2139 149.214L122.547 148.926C135.208 148.781 145.33 138.485 145.279 125.872L144.968 87.0641C144.8 74.3321 134.481 64.1393 121.891 64.2606Z" fill="#FFC100"/>
<path d="M144.986 95.5987L115.091 95.8161C108.748 95.853 103.725 100.636 103.787 106.577L103.786 106.813C103.825 112.684 108.987 117.426 115.329 117.389L145.225 117.172L144.986 95.5987Z" fill="white"/>
<path d="M112.202 102.767C114.315 102.075 116.589 103.228 117.281 105.341C117.973 107.454 116.82 109.727 114.707 110.419C112.594 111.111 110.321 109.959 109.629 107.846C108.937 105.733 110.089 103.459 112.202 102.767Z" fill="#FF9800"/>
</svg>
